<mxfile host="app.diagrams.net" modified="2023-11-28T11:30:54.108Z" agent="Mozilla/5.0 (Macintosh; Intel Mac OS X 10_15_7) AppleWebKit/537.36 (KHTML, like Gecko) Chrome/119.0.0.0 Safari/537.36" version="22.1.4" etag="G_yAZH9Hkoeb8TdJU8n5" type="github">
  <diagram name="Side-1" id="Yvhg8nUyePx3kCUv2rXw">
    <mxGraphModel>
      <root>
        <mxCell id="0" />
        <mxCell id="1" parent="0" />
      </root>
    </mxGraphModel>
  </diagram>
</mxfile>
